<?xml version="1.0" standalone="no"?>
<!DOCTYPE svg PUBLIC "-//W3C//DTD SVG 20010904//EN"
 "http://www.w3.org/TR/2001/REC-SVG-20010904/DTD/svg10.dtd">
<svg version="1.0" xmlns="http://www.w3.org/2000/svg"
 width="192.000000pt" height="192.000000pt" viewBox="0 0 192.000000 192.000000"
 preserveAspectRatio="xMidYMid meet">
<metadata>
Created by potrace 1.14, written by Peter Selinger 2001-2017
</metadata>
<g transform="translate(0.000000,192.000000) scale(0.100000,-0.100000)"
fill="#000000" stroke="none">
<path d="M0 960 l0 -960 960 0 960 0 0 960 0 960 -960 0 -960 0 0 -960z m1273
455 c164 -52 310 -102 325 -111 15 -9 39 -32 52 -52 25 -35 25 -36 25 -292 0
-256 0 -257 -25 -292 -13 -20 -37 -43 -52 -52 -29 -18 -613 -206 -637 -206 -8
0 -137 39 -285 86 -149 47 -286 90 -305 96 -48 15 -109 73 -121 116 -13 48
-13 456 0 504 16 57 74 102 172 132 45 14 180 57 298 95 118 38 224 70 235 70
11 0 154 -42 318 -94z"/>
<path d="M925 1473 c-77 -19 -555 -177 -580 -191 -16 -10 -40 -33 -52 -52 -22
-32 -23 -41 -23 -270 0 -229 1 -238 23 -270 12 -19 36 -42 52 -52 55 -32 567
-191 615 -191 48 0 559 159 615 191 16 10 40 33 52 52 22 32 23 41 23 270 0
229 -1 238 -23 270 -12 19 -36 42 -52 52 -36 21 -544 185 -595 191 -19 3 -44
3 -55 0z m126 -322 c24 -24 29 -38 29 -76 0 -50 -12 -62 -54 -51 -19 5 -25 14
-28 39 -2 24 -8 33 -25 35 -19 3 -23 -3 -29 -43 -10 -71 0 -215 16 -225 22
-14 40 9 40 51 0 24 -6 41 -16 47 -10 6 -14 19 -12 38 3 27 6 29 56 32 l52 3
0 -94 c0 -79 -3 -98 -20 -120 -30 -38 -80 -52 -123 -34 -51 22 -67 51 -67 124
0 48 -4 64 -17 72 -17 10 -17 12 0 25 13 10 17 28 17 70 0 60 18 108 47 125
10 6 37 11 61 11 35 0 49 -6 73 -29z"/>
</g>
</svg>
